<svg width="1000" height="130" viewBox="0 0 1000 130" fill="none" xmlns="http://www.w3.org/2000/svg">
<rect x="42.9639" y="37.2214" width="133.169" height="46.4845" transform="rotate(-3.3288 42.9639 37.2214)" fill="#16171B"/>
<path d="M27.8256 0.25293L48.2376 41.077L0.829102 15.3973L27.8256 0.25293Z" fill="#16171B"/>
<path d="M28.8479 53.165L45.5385 37.5629H28.8479V53.165Z" fill="#16171B"/>
<path d="M143.031 45.4933L123.601 61.6847L146.334 60.5187" stroke="white" stroke-width="3.7" stroke-linecap="round"/>
<path d="M75.238 50.6591L96.9776 63.0506L75.929 64.1302" stroke="white" stroke-width="3.7" stroke-linecap="round"/>
<path d="M271.688 96.7744C248.86 96.7744 226.759 79.1352 226.759 48.9409C226.759 19.058 248.964 1.52246 271.169 1.52246C281.545 1.52246 289.431 4.11647 295.449 7.85184V13.6624C288.497 9.30448 281.026 6.60672 271.065 6.60672C252.284 6.60672 232.051 21.7557 232.051 49.0447C232.051 76.3336 252.388 91.5864 271.376 91.5864C280.922 91.5864 288.289 88.8886 295.449 84.5307V90.5488C289.431 94.2842 281.441 96.7744 271.688 96.7744Z" fill="#16171B"/>
<path d="M297.731 62.4294C297.731 42.2999 311.947 28.1885 329.378 28.1885C346.706 28.1885 360.921 42.2999 360.921 62.4294C360.921 82.5589 346.706 96.5666 329.378 96.5666C312.05 96.5666 297.731 82.5589 297.731 62.4294ZM355.63 62.4294C355.63 43.9601 342.763 33.2728 329.378 33.2728C315.786 33.2728 303.023 43.9601 303.023 62.4294C303.023 80.8988 315.993 91.5861 329.378 91.5861C342.763 91.5861 355.63 80.6913 355.63 62.4294Z" fill="#16171B"/>
<path d="M449.014 50.6011V95.4256H443.826V51.1199C443.826 40.0176 438.742 33.4807 428.366 33.4807C417.886 33.4807 411.557 41.574 411.557 51.3275V95.5293H406.369V51.1199C406.369 40.1213 401.181 33.4807 390.805 33.4807C380.221 33.4807 374.099 41.7815 374.099 51.535V95.5293H368.911V29.3303H373.062L373.684 40.3289H373.788C376.693 33.2732 383.23 28.2927 391.635 28.2927C401.492 28.2927 407.406 33.2732 410.104 41.574C413.113 33.5844 419.65 28.2927 429.196 28.2927C442.477 28.1889 449.014 37.4236 449.014 50.6011Z" fill="#16171B"/>
<path d="M541.153 50.6011V95.4256H535.965V51.1199C535.965 40.0176 530.881 33.4807 520.505 33.4807C510.025 33.4807 503.696 41.574 503.696 51.3275V95.5293H498.508V51.1199C498.508 40.1213 493.32 33.4807 482.944 33.4807C472.36 33.4807 466.238 41.7815 466.238 51.535V95.5293H461.05V29.3303H465.201L465.823 40.3289H465.927C468.832 33.2732 475.369 28.2927 483.774 28.2927C493.631 28.2927 499.545 33.2732 502.243 41.574C505.252 33.5844 511.789 28.2927 521.335 28.2927C534.616 28.1889 541.153 37.4236 541.153 50.6011Z" fill="#16171B"/>
<path d="M548.416 62.4294C548.416 42.2999 562.632 28.1885 580.063 28.1885C597.391 28.1885 611.606 42.2999 611.606 62.4294C611.606 82.5589 597.391 96.5666 580.063 96.5666C562.735 96.5666 548.416 82.5589 548.416 62.4294ZM606.315 62.4294C606.315 43.9601 593.448 33.2728 580.063 33.2728C566.471 33.2728 553.708 43.9601 553.708 62.4294C553.708 80.8988 566.678 91.5861 580.063 91.5861C593.448 91.5861 606.315 80.6913 606.315 62.4294Z" fill="#16171B"/>
<path d="M669.193 51.4308V95.4252H664.005V53.6098C664.005 40.3285 657.157 33.4803 645.225 33.4803C634.019 33.4803 624.784 40.9511 624.784 52.9873V95.4252H619.596V29.3299H623.746L624.369 41.0548H624.473C628.104 33.5841 636.094 28.1885 646.055 28.1885C659.959 28.1885 669.193 37.2157 669.193 51.4308Z" fill="#16171B"/>
<path d="M769.379 95.4255H743.439L709.925 45.5168H709.821V95.4255H684.088V2.35248H710.028L743.543 51.4311H743.647V2.35248H769.379V95.4255Z" fill="#16171B"/>
<path d="M805.799 24.9306V95.4254H779.133V24.9305C779.133 24.9305 791.065 24.9306 805.799 24.9306Z" fill="#16171B"/>
<path d="M882.789 48.1104V95.4251H856.123V55.0624C856.123 49.3555 853.633 46.8653 848.756 46.8653C843.672 46.8653 840.559 50.1856 840.559 54.7511V95.4251H813.996V25.1794H834.644L837.238 34.4141H837.757C842.011 27.7734 849.171 23.2079 858.509 23.2079C873.866 23.2079 882.789 32.2351 882.789 48.1104Z" fill="#16171B"/>
<path d="M890.675 129.817L890.675 39.322L917.341 39.322L917.341 103.15C917.341 117.884 905.409 129.817 890.675 129.817Z" fill="#16171B"/>
<path d="M890.675 2.35248H917.341V32.3525H890.675V2.35248Z" fill="#16171B"/>
<path d="M922.218 60.5617C922.218 38.2532 937.575 23.2079 952.931 23.2079C963.618 23.2079 970.467 28.7072 974.513 34.3103L977.003 25.1794H999.623V95.4251H977.003L974.513 86.2942C970.57 91.8973 963.722 97.3966 952.931 97.3966C937.471 97.3966 922.218 82.3513 922.218 60.5617ZM973.372 60.2504C973.372 52.5721 968.495 46.7615 961.439 46.7615C954.072 46.7615 949.092 52.9872 949.092 60.2504C949.092 67.7211 954.072 73.7392 961.439 73.7392C968.495 73.7392 973.372 68.0324 973.372 60.2504Z" fill="#16171B"/>
</svg>
